<mxfile host="Electron" agent="Mozilla/5.0 (Windows NT 10.0; Win64; x64) AppleWebKit/537.36 (KHTML, like Gecko) draw.io/26.0.9 Chrome/128.0.6613.186 Electron/32.2.5 Safari/537.36" version="26.0.9">
  <diagram name="Page-1" id="h5c5QfnrQyZae1JYZmmw">
    <mxGraphModel dx="2410" dy="992" grid="1" gridSize="10" guides="1" tooltips="1" connect="1" arrows="1" fold="1" page="1" pageScale="1" pageWidth="850" pageHeight="1100" math="0" shadow="0">
      <root>
        <mxCell id="0" />
        <mxCell id="1" parent="0" />
        <mxCell id="p4udOjHZotMt3GmnlJx0-11" style="edgeStyle=orthogonalEdgeStyle;rounded=0;orthogonalLoop=1;jettySize=auto;html=1;exitX=0.5;exitY=1;exitDx=0;exitDy=0;entryX=0.5;entryY=0;entryDx=0;entryDy=0;" edge="1" parent="1" source="p4udOjHZotMt3GmnlJx0-1" target="p4udOjHZotMt3GmnlJx0-2">
          <mxGeometry relative="1" as="geometry" />
        </mxCell>
        <mxCell id="p4udOjHZotMt3GmnlJx0-1" value="start" style="ellipse;whiteSpace=wrap;html=1;" vertex="1" parent="1">
          <mxGeometry x="-160" y="110" width="90" height="40" as="geometry" />
        </mxCell>
        <mxCell id="p4udOjHZotMt3GmnlJx0-12" style="edgeStyle=orthogonalEdgeStyle;rounded=0;orthogonalLoop=1;jettySize=auto;html=1;exitX=0.5;exitY=1;exitDx=0;exitDy=0;" edge="1" parent="1" source="p4udOjHZotMt3GmnlJx0-2">
          <mxGeometry relative="1" as="geometry">
            <mxPoint x="-115" y="260" as="targetPoint" />
          </mxGeometry>
        </mxCell>
        <mxCell id="p4udOjHZotMt3GmnlJx0-2" value="payload = consumeFromKafka()" style="rounded=0;whiteSpace=wrap;html=1;fillColor=none;" vertex="1" parent="1">
          <mxGeometry x="-218.5" y="190" width="207" height="40" as="geometry" />
        </mxCell>
        <mxCell id="p4udOjHZotMt3GmnlJx0-14" style="edgeStyle=orthogonalEdgeStyle;rounded=0;orthogonalLoop=1;jettySize=auto;html=1;exitX=1;exitY=0.5;exitDx=0;exitDy=0;entryX=0.5;entryY=0;entryDx=0;entryDy=0;" edge="1" parent="1" source="p4udOjHZotMt3GmnlJx0-3" target="p4udOjHZotMt3GmnlJx0-4">
          <mxGeometry relative="1" as="geometry" />
        </mxCell>
        <mxCell id="p4udOjHZotMt3GmnlJx0-15" style="edgeStyle=orthogonalEdgeStyle;rounded=0;orthogonalLoop=1;jettySize=auto;html=1;exitX=0;exitY=0.5;exitDx=0;exitDy=0;entryX=0.5;entryY=0;entryDx=0;entryDy=0;" edge="1" parent="1" source="p4udOjHZotMt3GmnlJx0-3" target="p4udOjHZotMt3GmnlJx0-7">
          <mxGeometry relative="1" as="geometry" />
        </mxCell>
        <mxCell id="p4udOjHZotMt3GmnlJx0-3" value="payload.DomainStatus = &quot;COMPLETED&quot;" style="rhombus;whiteSpace=wrap;html=1;" vertex="1" parent="1">
          <mxGeometry x="-270" y="352" width="310" height="80" as="geometry" />
        </mxCell>
        <mxCell id="p4udOjHZotMt3GmnlJx0-17" style="edgeStyle=orthogonalEdgeStyle;rounded=0;orthogonalLoop=1;jettySize=auto;html=1;exitX=0;exitY=0.5;exitDx=0;exitDy=0;entryX=0.5;entryY=0;entryDx=0;entryDy=0;" edge="1" parent="1" source="p4udOjHZotMt3GmnlJx0-4" target="p4udOjHZotMt3GmnlJx0-9">
          <mxGeometry relative="1" as="geometry" />
        </mxCell>
        <mxCell id="p4udOjHZotMt3GmnlJx0-4" value="order3pl.SetCompleteStatus()" style="rounded=0;whiteSpace=wrap;html=1;" vertex="1" parent="1">
          <mxGeometry x="40" y="432" width="180" height="38" as="geometry" />
        </mxCell>
        <mxCell id="p4udOjHZotMt3GmnlJx0-5" value="T" style="text;html=1;align=center;verticalAlign=middle;resizable=0;points=[];autosize=1;strokeColor=none;fillColor=none;" vertex="1" parent="1">
          <mxGeometry x="25" y="350" width="30" height="30" as="geometry" />
        </mxCell>
        <mxCell id="p4udOjHZotMt3GmnlJx0-13" style="edgeStyle=orthogonalEdgeStyle;rounded=0;orthogonalLoop=1;jettySize=auto;html=1;exitX=0.5;exitY=1;exitDx=0;exitDy=0;" edge="1" parent="1" source="p4udOjHZotMt3GmnlJx0-6">
          <mxGeometry relative="1" as="geometry">
            <mxPoint x="-115" y="350" as="targetPoint" />
          </mxGeometry>
        </mxCell>
        <mxCell id="p4udOjHZotMt3GmnlJx0-6" value="order3pl = db.D3plorder.query(x =&amp;gt;&lt;div&gt;x.SagaId = payload.SagaId)&lt;/div&gt;" style="rounded=0;whiteSpace=wrap;html=1;fillColor=none;" vertex="1" parent="1">
          <mxGeometry x="-218.5" y="270" width="207" height="40" as="geometry" />
        </mxCell>
        <mxCell id="p4udOjHZotMt3GmnlJx0-16" style="edgeStyle=orthogonalEdgeStyle;rounded=0;orthogonalLoop=1;jettySize=auto;html=1;exitX=1;exitY=0.5;exitDx=0;exitDy=0;entryX=0.5;entryY=0;entryDx=0;entryDy=0;" edge="1" parent="1" source="p4udOjHZotMt3GmnlJx0-7" target="p4udOjHZotMt3GmnlJx0-9">
          <mxGeometry relative="1" as="geometry" />
        </mxCell>
        <mxCell id="p4udOjHZotMt3GmnlJx0-7" value="order3pl.SetCompensatedStatus()" style="rounded=0;whiteSpace=wrap;html=1;" vertex="1" parent="1">
          <mxGeometry x="-480" y="432" width="220" height="38" as="geometry" />
        </mxCell>
        <mxCell id="p4udOjHZotMt3GmnlJx0-8" value="F" style="text;html=1;align=center;verticalAlign=middle;resizable=0;points=[];autosize=1;strokeColor=none;fillColor=none;" vertex="1" parent="1">
          <mxGeometry x="-285" y="348" width="30" height="30" as="geometry" />
        </mxCell>
        <mxCell id="p4udOjHZotMt3GmnlJx0-18" style="edgeStyle=orthogonalEdgeStyle;rounded=0;orthogonalLoop=1;jettySize=auto;html=1;exitX=0.5;exitY=1;exitDx=0;exitDy=0;" edge="1" parent="1" source="p4udOjHZotMt3GmnlJx0-9">
          <mxGeometry relative="1" as="geometry">
            <mxPoint x="-115" y="570" as="targetPoint" />
          </mxGeometry>
        </mxCell>
        <mxCell id="p4udOjHZotMt3GmnlJx0-9" value="db.D3plorder.update(order3pl)" style="rounded=0;whiteSpace=wrap;html=1;" vertex="1" parent="1">
          <mxGeometry x="-205" y="510" width="180" height="38" as="geometry" />
        </mxCell>
        <mxCell id="p4udOjHZotMt3GmnlJx0-10" value="end" style="ellipse;whiteSpace=wrap;html=1;fillColor=#0050ef;fontColor=#ffffff;strokeColor=#001DBC;" vertex="1" parent="1">
          <mxGeometry x="-160" y="580" width="90" height="40" as="geometry" />
        </mxCell>
        <mxCell id="p4udOjHZotMt3GmnlJx0-19" value="&lt;div&gt;{&lt;/div&gt;&lt;div&gt;&amp;nbsp; &amp;nbsp; &quot;ReferenceNo&quot;: &quot;CDS20250205016-1&quot;,&lt;/div&gt;&lt;div&gt;&amp;nbsp; &amp;nbsp; &quot;Publisher&quot;: &quot;tms-3pl&quot;,&lt;/div&gt;&lt;div&gt;&amp;nbsp; &amp;nbsp; &quot;SagaId&quot;: &quot;3f3570bb76687602d351e0b4fbe18afb&quot;,&lt;/div&gt;&lt;div&gt;&amp;nbsp; &amp;nbsp; &quot;Environment&quot;: &quot;Sit&quot;,&lt;/div&gt;&lt;div&gt;&amp;nbsp; &amp;nbsp; &quot;EventName&quot;: &quot;OutboundFinishedEvent&quot;,&lt;/div&gt;&lt;div&gt;&amp;nbsp; &amp;nbsp; &quot;DomainStatus&quot;: &quot;COMPLETED&quot;,&lt;/div&gt;&lt;div&gt;&amp;nbsp; &amp;nbsp; &quot;ProviderCode&quot;: &quot;3PLP&quot;,&lt;/div&gt;&lt;div&gt;&amp;nbsp; &amp;nbsp; &quot;Username&quot;: &quot;TMSSystem&quot;,&lt;/div&gt;&lt;div&gt;&amp;nbsp; &amp;nbsp; &quot;FailureMessages&quot;: [],&lt;/div&gt;&lt;div&gt;&amp;nbsp; &amp;nbsp; &quot;Id&quot;: &quot;c97bfe63-8671-4db8-8a55-2485911c04cd&quot;,&lt;/div&gt;&lt;div&gt;&amp;nbsp; &amp;nbsp; &quot;CreationDate&quot;: &quot;2025-02-10T08:03:28.2064895Z&quot;&lt;/div&gt;&lt;div&gt;}&lt;/div&gt;" style="text;html=1;align=left;verticalAlign=middle;resizable=0;points=[];autosize=1;strokeColor=none;fillColor=none;" vertex="1" parent="1">
          <mxGeometry x="-830" y="110" width="310" height="200" as="geometry" />
        </mxCell>
        <mxCell id="p4udOjHZotMt3GmnlJx0-20" value="&lt;font style=&quot;font-size: 17px;&quot;&gt;Input: OutboundFinishedEvent&lt;/font&gt;" style="text;html=1;align=center;verticalAlign=middle;resizable=0;points=[];autosize=1;strokeColor=none;fillColor=none;" vertex="1" parent="1">
          <mxGeometry x="-520" y="30" width="250" height="30" as="geometry" />
        </mxCell>
      </root>
    </mxGraphModel>
  </diagram>
</mxfile>
